<?xml version="1.0" standalone="no"?>
<!DOCTYPE svg PUBLIC "-//W3C//DTD SVG 20010904//EN"
 "http://www.w3.org/TR/2001/REC-SVG-20010904/DTD/svg10.dtd">
<svg version="1.0" xmlns="http://www.w3.org/2000/svg"
 width="260.000000pt" height="260.000000pt" viewBox="0 0 260.000000 260.000000"
 preserveAspectRatio="xMidYMid meet">
<metadata>
Created by potrace 1.11, written by Peter Selinger 2001-2013
</metadata>
<g transform="translate(0.000000,260.000000) scale(0.100000,-0.100000)"
fill="#000000" stroke="none">
<path d="M955 2505 c-22 -8 -41 -15 -43 -15 -1 0 -16 -21 -32 -47 -41 -64 -41
-123 0 -184 32 -50 88 -76 170 -78 25 -1 49 -6 54 -11 11 -11 1 -39 -16 -44
-7 -2 -51 -14 -98 -27 -383 -101 -679 -422 -755 -819 -14 -74 -14 -278 0 -345
68 -326 258 -580 545 -729 177 -92 329 -126 540 -121 172 4 290 33 446 110
370 181 591 539 579 940 -3 118 -6 141 -26 220 -24 93 -104 276 -141 322 -10
13 19 62 37 63 6 0 24 -12 40 -26 51 -44 84 -57 134 -51 74 8 121 75 107 151
-5 27 -41 68 -180 204 -156 151 -178 170 -216 176 -71 11 -149 -42 -152 -104
-2 -60 4 -75 46 -116 l44 -42 -22 -21 c-23 -22 -42 -27 -48 -13 -5 12 -98 77
-158 110 -71 40 -188 84 -279 107 -63 15 -72 20 -69 39 3 18 12 22 75 27 78 7
115 25 153 72 21 26 25 42 25 97 0 79 -26 122 -89 151 -37 16 -70 18 -336 18
-229 0 -304 -3 -335 -14z m469 -716 c177 -32 360 -153 462 -307 135 -203 149
-457 36 -682 -55 -110 -187 -241 -302 -298 -125 -62 -219 -83 -360 -78 -91 3
-132 10 -195 30 -193 65 -350 202 -432 379 -75 162 -78 369 -6 542 41 98 137
219 233 293 23 18 183 102 195 102 3 0 10 3 17 5 7 3 51 11 98 18 90 14 158
13 254 -4z"/>
<path d="M1058 1498 c-9 -7 -21 -24 -26 -38 -5 -14 -9 -176 -8 -361 1 -302 3
-338 19 -362 28 -43 74 -37 182 24 50 28 124 69 165 91 41 23 89 49 107 59 18
10 63 35 100 55 96 53 146 85 160 103 18 24 15 65 -6 88 -32 34 -600 345 -640
350 -21 3 -43 -1 -53 -9z"/>
</g>
</svg>
