<svg xmlns="http://www.w3.org/2000/svg" width="93.543" height="93.543" viewBox="0 0 93.543 93.543"><path fill="#e1aa36" d="M10.529 38.953h6.796l20.669.13 6.937-18.046 2.125-6.016 2.122 6.147 6.371 18.177 20.67.391 6.795.132-5.52 3.661-16.848 11.116 5.946 18.307 1.982 6.146-5.521-3.792-16.706-11.247L29.5 74.914l-5.663 3.53 2.123-6.015 6.513-18.046-16.422-11.638z"/><path fill="#de6723" d="M18.69 34.64h5.297l16.11.11 5.408-15.228 1.655-5.076 1.656 5.186 4.965 15.339 16.111.331 5.296.11-4.304 3.09-13.13 9.379 4.634 15.45 1.545 5.186-4.304-3.201-13.021-9.488-13.131 9.158-4.414 2.978 1.656-5.074 5.076-15.23-12.801-9.82z"/></svg>