<svg xmlns="http://www.w3.org/2000/svg" width="93.543" height="93.543" viewBox="0 0 93.543 93.543"><g fill-rule="evenodd" clip-rule="evenodd" fill="#82ab4d"><path d="M75.867 73.566c2.898 1.434 5.322.213 7.703-1.455-3.6-5.479-5.397-6.142-11.092-4.312-.811 3.039 1.077 4.623 3.389 5.767z"/><path d="M72.479 67.8c.007-.029.012-.054.021-.085l-.021.013-.094.103c.032-.012.061-.019.094-.031z"/><path d="M83.17 54.866l1.634-11.055c5.392-1.735 6.093-2.758 5.298-8.147-3.416.632-5.639 2.483-6.326 6.288-.964-2.125-1.878-3.855-2.529-5.679-.381-1.071-.576-2.313-.461-3.438.517-5.089-1.088-7.229-6.943-8.78-1.02 4.392-.411 7.963 3.854 10.542 1.443.874 2.261 2.78 3.366 4.214-2.632-.701-4.704-1.882-7.141-.508 1.133 4.719 3.762 6.841 8.515 5.548 1.001 4.657-.196 8.437-2.288 12.041.398-4.57-.609-8.356-5.564-10.167-1.743 1.898-1.311 4.113-1.173 6.14.225 3.29 1.428 4.315 5.428 5.242-1.187 3.526-3.97 5.367-7.257 7.065 2.556-4.862-.051-7.942-2.875-11.109-2.452 2.667-2.917 3.804-3.193 6.067-.384 3.143 1.661 5.091 4.071 7.526-4.475 1.596-8.324 2.965-12.085 4.304.75 3.192 3.271.983 4.479 2.027 2.426 5.658 4.291 6.528 10.767 4.678-1.847-2.54-3.572-4.916-5.393-7.419a2764.76 2764.76 0 0 1 5.125-2.517c3.185-3.527 6.369-7.054 9.554-10.579-.189 1.967.853 2.875 2.669 3.228 4.263.828 7.085-1.32 8.189-6.289-3.346-1.07-6.552-.363-9.721.777z"/></g><g fill-rule="evenodd" clip-rule="evenodd" fill="#7da54a"><path d="M24.45 66.655c2.411-2.435 4.457-4.383 4.072-7.526-.277-2.264-.74-3.4-3.193-6.067-2.824 3.167-5.432 6.248-2.875 11.109-3.287-1.698-6.071-3.539-7.257-7.065 4-.927 5.205-1.953 5.428-5.242.138-2.027.571-4.242-1.173-6.14-4.956 1.811-5.963 5.597-5.565 10.167-2.093-3.604-3.289-7.384-2.287-12.041 4.752 1.293 7.381-.829 8.513-5.548-2.436-1.374-4.507-.193-7.139.508 1.104-1.434 1.922-3.34 3.366-4.214 4.264-2.58 4.875-6.151 3.854-10.542-5.855 1.551-7.461 3.691-6.944 8.78.115 1.125-.079 2.367-.461 3.438-.652 1.824-1.564 3.555-2.529 5.679-.687-3.805-2.91-5.656-6.326-6.288-.795 5.389-.093 6.412 5.298 8.147l1.635 11.055c-3.169-1.14-6.375-1.847-9.721-.778 1.104 4.969 3.926 7.117 8.19 6.289 1.815-.353 2.858-1.26 2.669-3.228 3.185 3.525 6.369 7.052 9.554 10.579 1.732.849 3.463 1.698 5.125 2.517l-5.393 7.419c6.476 1.85 8.341.98 10.767-4.678 1.209-1.044 3.729 1.165 4.48-2.027a9288.34 9288.34 0 0 1-12.088-4.303z"/><path d="M10.465 72.112c2.382 1.668 4.805 2.888 7.704 1.455 2.312-1.145 4.2-2.729 3.388-5.767-5.694-1.83-7.491-1.167-11.092 4.312z"/><path d="M21.557 67.8c.032.012.062.02.094.031-.031-.034-.062-.07-.094-.103l-.02-.013c.009.031.012.056.02.085z"/></g><path d="M24.451 45.817c.017-.076.04-.152.048-.232.15-1.45.303-2.897.445-4.35.016-.169.081-.254.236-.323 1.219-.557 2.44-1.108 3.651-1.684 1.466-.696 2.861-1.522 4.233-2.387.025-.016.052-.029.104-.059a45.505 45.505 0 0 0 5.487 12.044c-.177.061-.341.119-.507.169a42.198 42.198 0 0 0-5.523 2.085c-.787.36-1.577.716-2.362 1.082-.132.06-.222.052-.339-.03-1.237-.878-2.478-1.75-3.72-2.623-.028-.022-.063-.035-.096-.052l-1.657-3.64z" fill-rule="evenodd" clip-rule="evenodd" fill="#de6723"/><path d="M66.754 28.865c1.226 2.729 2.245 5.621 2.815 8.658.306 1.625.487 3.264.332 4.92-.073.786-.225 1.553-.58 2.27-.307.621-.759 1.077-1.403 1.358-.983.43-1.956.889-2.936 1.328a.613.613 0 0 1-.336.052c-3.543-.655-7.119-.893-10.715-.852-4.008.043-7.971.476-11.882 1.359-.168.039-.262.008-.361-.138-1.556-2.277-2.839-4.702-3.911-7.239a39.343 39.343 0 0 1-1.704-4.859c-.068-.243-.216-.511-.161-.724.051-.189.324-.33.514-.472a56.791 56.791 0 0 0 7.398-6.652c2.692-2.878 5.121-5.959 7.152-9.34.262-.436.573-.726 1.04-.917a41.28 41.28 0 0 0 2.388-1.083c.731-.358 1.465-.368 2.221-.121.835.27 1.565.732 2.249 1.272 1.502 1.184 2.726 2.623 3.845 4.159 1.582 2.169 2.878 4.502 4.035 7.021zm-2.597 1.069c-1.096-2.364-2.365-4.626-3.971-6.688-.972-1.246-2.029-2.413-3.332-3.325-.493-.348-1.014-.647-1.611-.778-.569-.124-.906.006-1.145.536-.191.426-.34.889-.418 1.349-.236 1.388-.111 2.773.105 4.153.362 2.316 1.048 4.539 1.927 6.708 1.13 2.791 2.525 5.437 4.326 7.858.978 1.319 2.051 2.548 3.366 3.545.557.422 1.144.796 1.833.966.633.158.957.005 1.252-.572.268-.524.377-1.092.438-1.667.154-1.456.004-2.896-.255-4.326-.491-2.7-1.397-5.263-2.515-7.759zM38.479 50.844l1.298-.319c1.366-.333 2.733-.662 4.097-.997a.426.426 0 0 1 .405.077c2.967 2.26 5.936 4.516 8.908 6.769.264.202.498.424.583.759.124.482-.021.886-.359 1.238-1.074 1.121-2.146 2.246-3.219 3.369-.208.219-.415.441-.629.655-.58.589-1.352.562-1.871-.081-2.14-2.654-4.272-5.313-6.408-7.971-.885-1.1-1.769-2.203-2.653-3.304l-.152-.195z" fill-rule="evenodd" clip-rule="evenodd" fill="#f4b83b"/><path d="M58.777 32.39c-.539-1.206-.972-2.435-1.06-3.751-.03-.45.011-.915.098-1.358.084-.435.316-.521.725-.345.579.25 1.011.692 1.407 1.163 1.052 1.241 1.786 2.66 2.322 4.19.322.918.567 1.856.582 2.835.004.35-.042.709-.127 1.049-.098.396-.307.476-.687.326-.452-.18-.802-.5-1.132-.842-.923-.953-1.579-2.082-2.128-3.267z" fill-rule="evenodd" clip-rule="evenodd" fill="#e8e6d6"/></svg>