<svg xmlns="http://www.w3.org/2000/svg" width="93.543" height="93.543" viewBox="0 0 93.543 93.543"><g fill-rule="evenodd" clip-rule="evenodd" fill="#e1aa36"><path d="M71.796 66.59l.021-.088-.021.011-.096.105.096-.028zM75.28 72.515c2.979 1.475 5.47.22 7.919-1.496-3.701-5.63-5.548-6.313-11.402-4.429-.835 3.122 1.105 4.751 3.483 5.925z"/><path d="M82.787 53.291l1.68-11.364c5.542-1.784 6.263-2.836 5.446-8.374-3.511.65-5.796 2.55-6.502 6.464-.991-2.185-1.931-3.965-2.6-5.839-.393-1.101-.592-2.379-.475-3.536.532-5.229-1.118-7.431-7.137-9.023-1.049 4.511-.422 8.184 3.962 10.836 1.483.897 2.324 2.858 3.459 4.331-2.707-.718-4.834-1.933-7.339-.521 1.164 4.849 3.866 7.031 8.752 5.701 1.03 4.79-.201 8.675-2.351 12.38.409-4.696-.627-8.59-5.721-10.452-1.792 1.949-1.347 4.227-1.205 6.31.23 3.383 1.468 4.438 5.58 5.391-1.22 3.625-4.082 5.517-7.46 7.262 2.627-4.998-.053-8.165-2.955-11.42-2.521 2.741-2.999 3.91-3.283 6.238-.396 3.23 1.706 5.231 4.185 7.735L56.4 69.835c.771 3.284 3.362 1.01 4.604 2.083 2.494 5.816 4.411 6.711 11.069 4.808-1.898-2.608-3.672-5.051-5.545-7.626 1.709-.839 3.487-1.714 5.269-2.587 3.275-3.625 6.548-7.252 9.822-10.875-.195 2.023.877 2.955 2.743 3.319 4.383.851 7.284-1.358 8.419-6.466-3.441-1.099-6.737-.37-9.994.8z"/></g><g fill-rule="evenodd" clip-rule="evenodd" fill="#e1aa36"><path d="M24.513 65.411c2.478-2.504 4.581-4.505 4.185-7.735-.284-2.328-.761-3.497-3.282-6.238-2.903 3.255-5.583 6.422-2.956 11.42-3.378-1.746-6.24-3.638-7.461-7.262 4.113-.954 5.35-2.008 5.581-5.391.142-2.083.586-4.36-1.206-6.31-5.094 1.862-6.131 5.755-5.72 10.452-2.152-3.705-3.382-7.59-2.353-12.38 4.886 1.33 7.588-.852 8.753-5.701-2.505-1.412-4.635-.197-7.34.521 1.134-1.473 1.976-3.434 3.459-4.331 4.384-2.652 5.011-6.325 3.961-10.836-6.02 1.592-7.669 3.794-7.138 9.023.118 1.157-.082 2.435-.475 3.536-.668 1.875-1.609 3.654-2.6 5.839-.706-3.914-2.991-5.814-6.502-6.464-.817 5.537-.096 6.589 5.447 8.374l1.68 11.364c-3.258-1.17-6.553-1.899-9.993-.8 1.136 5.107 4.036 7.317 8.419 6.466 1.867-.364 2.938-1.296 2.743-3.319 3.275 3.623 6.548 7.25 9.823 10.875l5.267 2.587a8207.347 8207.347 0 0 1-5.544 7.626c6.658 1.903 8.573 1.008 11.068-4.808 1.242-1.073 3.834 1.201 4.604-2.083l-12.42-4.425z"/><path d="M10.136 71.019c2.449 1.716 4.94 2.971 7.92 1.496 2.376-1.174 4.317-2.803 3.482-5.925-5.853-1.884-7.7-1.201-11.402 4.429zM21.539 66.59l.097.028-.096-.105-.021-.011c.008.031.011.058.02.088z"/></g><path d="M44.255 61.46a34.85 34.85 0 0 1-12.377-2.874v-9.739c2.268 1.155 4.731 2.118 7.391 2.891 2.659.772 4.997 1.158 7.011 1.158 1.662 0 2.879-.202 3.652-.602.772-.399 1.158-1.07 1.158-2.009 0-.646-.279-1.192-.836-1.642-.557-.449-1.486-.958-2.787-1.525-1.3-.568-3.055-1.251-5.265-2.053-2.483-.92-4.486-1.952-6.012-3.093-1.525-1.146-2.636-2.424-3.33-3.844-.694-1.417-1.041-3.182-1.041-5.294 0-3.225 1.036-5.748 3.108-7.565 2.073-1.82 5.181-2.943 9.327-3.374v-4.018h6.071v3.958c3.891.216 7.812 1.173 11.762 2.875l-3.49 8.36c-4.088-1.84-7.773-2.757-11.058-2.757-1.565 0-2.665.188-3.3.572-.636.382-.953.942-.953 1.684 0 .646.229 1.18.689 1.599.459.422 1.255.892 2.391 1.41 1.133.517 2.707 1.119 4.722 1.803 4.086 1.448 7.02 3.093 8.799 4.942 1.779 1.848 2.669 4.227 2.669 7.142 0 3.284-1.042 5.953-3.124 8.006s-5.119 3.325-9.107 3.813v5.66h-6.071V61.46z" fill="#e4e2d2"/></svg>