<svg xmlns="http://www.w3.org/2000/svg" width="93.543" height="93.543" viewBox="0 0 93.543 93.543"><g fill-rule="evenodd" clip-rule="evenodd" fill="#d46121"><path d="M54.859 37.734c1.999.248 3.997.477 5.993.742a61.497 61.497 0 0 1 18.678 5.6c3.206 1.545 4.362 5.232 2.687 8.384-.805 1.507-1.883 2.768-3.361 3.643-.729.43-1.02 1.041-1.146 1.875-.235 1.566-.491 3.149-.951 4.661-.571 1.88-1.911 3.174-3.762 3.85-1.247.456-1.974 1.255-2.199 2.568-.533 3.101-2.355 5.258-5.122 6.582-1.517.725-2.597 1.721-3.305 3.256a7.289 7.289 0 0 1-2.884 3.225c-1.457.884-3.011 1.134-4.671.744-6.252-1.462-12.205-3.797-18.083-6.32-4.39-1.882-8.726-3.887-13.094-5.816-.458-.202-.615-.444-.613-.945.014-9.752.017-19.507-.005-29.261-.001-.57.219-.761.7-.943 5.179-1.941 10.042-4.454 14.31-8.025 5.096-4.263 8.736-9.596 11.463-15.597.757-1.664 1.41-3.378 2.097-5.075.382-.948.648-1.114 1.623-.941 4.246.762 6.519 3.367 6.649 7.673.111 3.688-.759 7.225-1.84 10.704-.975 3.137-2.088 6.234-3.164 9.416zM19.314 69.78c-2.257 0-4.457.008-6.657-.02-.155-.001-.407-.244-.448-.415-1.294-5.335-2.147-10.724-1.861-16.242.209-3.99.895-7.908 1.806-11.791.081-.345.095-.667.599-.662 2.099.02 4.198.013 6.296.019.074 0 .147.043.266.08l-.001 29.031z"/></g><g fill="#efeedd"><path d="M41.016 52.455c0 1.805-.615 3.221-1.842 4.249-1.229 1.027-2.91 1.541-5.044 1.541h-.924l-1.073 5.21h-4.201L31.25 47.75h4.008c1.854 0 3.277.406 4.27 1.219.992.812 1.488 1.975 1.488 3.486zm-7.059 2.352h.677c.652 0 1.179-.208 1.579-.628.402-.418.603-.951.603-1.594 0-.423-.129-.763-.387-1.021-.258-.258-.613-.387-1.064-.387h-.633l-.775 3.63zM47.053 57.74l-1.214 5.715h-4.2l3.32-15.705h4.157c1.805 0 3.187.357 4.147 1.073.959.716 1.438 1.794 1.438 3.234 0 1.116-.253 2.091-.762 2.922-.507.831-1.264 1.465-2.267 1.901l2.406 5.543.43 1.032h-4.577l-2.095-5.715h-.783zm.678-3.191h.547c.679 0 1.221-.195 1.623-.584.399-.39.6-.937.6-1.639 0-.443-.124-.782-.371-1.015-.247-.232-.606-.35-1.081-.35h-.568l-.75 3.588zM65.219 47.502c1.864 0 3.31.532 4.346 1.595 1.035 1.064 1.552 2.549 1.552 4.454 0 1.904-.356 3.647-1.07 5.226-.711 1.58-1.694 2.79-2.949 3.63-1.251.843-2.705 1.263-4.359 1.263-1.927 0-3.416-.533-4.466-1.6-1.049-1.068-1.573-2.55-1.573-4.448 0-1.898.369-3.643 1.107-5.232.737-1.59 1.743-2.802 3.014-3.636 1.269-.833 2.738-1.252 4.398-1.252zm1.654 6.093c0-.818-.172-1.457-.515-1.919-.344-.462-.841-.692-1.494-.692-.708 0-1.361.299-1.954.902-.597.602-1.071 1.428-1.424 2.482a10.058 10.058 0 0 0-.533 3.234c0 1.732.716 2.599 2.148 2.599.681 0 1.313-.296 1.897-.892.583-.594 1.042-1.396 1.374-2.406.336-1.01.501-2.113.501-3.308z"/></g></svg>