<svg xmlns="http://www.w3.org/2000/svg" width="93.543" height="93.543" viewBox="0 0 93.543 93.543"><g fill-rule="evenodd" clip-rule="evenodd" fill="#d62"><path d="M47.973 26.84c2.307 2.789 3.51 6.13 4.447 9.582 1.376 5.068 2.378 10.288 4.27 15.157 3.258 8.391 6.787 16.705 11.763 24.286.369.562.49 1.086.175 1.75-.854 1.796-1.734 2.257-3.672 1.738a8.445 8.445 0 0 1-1.639-.655c-4.017-2.058-7.554-4.821-11.024-7.655-4.791-3.912-9.484-7.944-14.268-11.865-3.52-2.884-7.2-5.578-10.647-8.542a26.659 26.659 0 0 1-4.555-5.116c-1.891-2.768-1.587-5.614.586-8.166.919-1.08 1.972-2.057 3.031-3.004 1.813-1.624 3.677-3.188 5.522-4.774 2.651-2.279 5.415-4.384 8.829-5.417 1.291-.391 2.593-.514 4.051-.143 1.054.934 2.245 1.754 3.131 2.824zm-13.458 7.879c-.034-.041 6.576.142 11.135 4.747 2.61 4.949 6.942 11.473 7.971 18.1.233.466 2.305 2.259 2.579 2.701.079.126-1.079-5.154-1.229-5.542-2.375-6.154-3.888-12.297-6.741-18.561-1.176-2.585-4.094-6.219-3.943-9.045-1.53 1.298-6.988 7.244-9.772 7.6z"/><path d="M23.863 31.59c.435-1.054 1.008-2.059 1.601-3.037.588-.971.813-1.918.171-2.932-1.654-2.608-3.642-4.926-6.177-6.709-1.456-1.023-2.765-.789-4.001.51-.139.145-.295.274-.567.526-.513-.572-1.109-1.042-1.44-1.653-.747-1.374-.853-2.992 1.232-3.672a8.71 8.71 0 0 1 2.953-.423c2.138.078 3.934 1.071 5.501 2.478 1.758 1.58 3.473 3.208 5.24 4.775 1.69 1.499 3.584 2.317 5.929 1.788.792-.178 1.677-.146 2.483-.005.661.116 1.269.537 1.9.823l.003.368c-5.449 2.75-9.449 7.349-14.201 11.092-.944-1.289-1.18-2.591-.627-3.929zm6.643-5.086c.373.463.753.535 1.24.178.634-.464 2.505-1.391 3.403-2.013-2.344-.156-4.384.948-7.249-1.331.477 1.873 1.748 2.102 2.606 3.166zM15.124 16.016c-.334-.102-.938.044-1.146.3-.395.488.299 1.625 1.163 2.006.692-1.19.697-2.088-.017-2.306z"/></g><g fill-rule="evenodd" clip-rule="evenodd" fill="#82ac4e"><path d="M14.372 66.663v-15.99c6.598-3.615 50.005-3.964 64.83-.496v15.874c-10.717-.683-21.487-1.747-32.273-1.949-10.823-.2-21.643.718-32.557 2.561z"/><path d="M.207 55.888h11.979v13.096c2.188-.263 3.98-.478 5.978-.72l.151 3.422H.271c2.091-2.801 3.976-5.326 5.856-7.849l-5.92-7.949zM75.649 71.723v-3.389l5.841.619c.458-4.401.058-8.691.185-13.115h11.884a77530.2 77530.2 0 0 1-5.97 7.887l5.835 7.998H75.649z"/></g><g fill="#235870"><path d="M38.768 61.861h-3.254v-4.884h-3.762v4.884h-3.253V49.88h3.253v4.442h3.762V49.88h3.254v11.981zM52.569 55.854c0 2.016-.495 3.549-1.484 4.598s-2.437 1.574-4.343 1.574c-1.879 0-3.321-.527-4.323-1.582-1.002-1.055-1.504-2.589-1.504-4.605 0-1.994.499-3.517 1.496-4.569s2.446-1.578 4.348-1.578c1.907 0 3.352.522 4.335 1.565.983 1.043 1.475 2.576 1.475 4.597zm-8.245 0c0 2.316.806 3.475 2.417 3.475.82 0 1.427-.281 1.824-.844.396-.563.594-1.439.594-2.63 0-1.196-.201-2.08-.603-2.651-.401-.571-1.001-.857-1.799-.857-1.621-.001-2.433 1.169-2.433 3.507zM60.018 61.861h-3.237v-9.334h-2.926V49.88h9.081v2.647h-2.918v9.334z"/></g></svg>