<svg xmlns="http://www.w3.org/2000/svg" width="93.543" height="93.543" viewBox="0 0 93.543 93.543"><g fill-rule="evenodd" clip-rule="evenodd" fill="#de6723"><path d="M34.483 16.862c2.545-.175 4.812 1.373 5.807 3.996.263.692.455 1.421.591 2.148.134.708.154 1.436.235 2.259.234-.176.446-.307.624-.475 1.958-1.845 2.9-4.175 3.184-6.799.399-3.671-.54-7.113-1.853-10.484-.072-.185-.143-.37-.278-.725.729.114 1.36.151 1.958.315 2.276.626 4.035 2.061 5.62 3.73 2.833 2.982 4.925 6.471 6.756 10.12.884 1.762 1.647 3.583 2.467 5.378.065.141.136.279.285.585.148-2.854 1.546-4.453 4.284-4.963-1.057.811-.963 1.892-.665 2.85.597 1.915 1.203 3.86 2.108 5.637 1.349 2.651 1.922 5.43 1.885 8.34-.029 2.352-.266 4.703-.408 7.055-.008.136-.001.274-.001.555 1.835-2.1 2.596-4.454 2.553-7.106l.169-.031c.223.671.511 1.328.658 2.015 1.238 5.849.606 11.43-2.563 16.588-1.988 3.236-4.881 5.434-8.354 6.886-2.871 1.2-5.887 1.772-9.005 1.93 7.383-2.293 12.032-7.411 15.029-14.383l-6.16 1.188c.093-.197.111-.277.158-.33 2.006-2.223 3.003-4.892 3.363-7.812.452-3.673 0-7.277-1.004-10.821-.037-.127-.094-.25-.181-.48-1.302 2.074-3.118 3.436-5.219 4.701.364-2.991-.2-5.735-1.269-8.391-1.06-2.633-2.516-5.03-4.4-7.37.208 1.12-.186 1.931-.809 2.555-1.292 1.295-2.575 2.632-4.034 3.719-3.005 2.238-6.106 4.349-9.201 6.463-2.301 1.571-4.42 3.315-5.999 5.64-3.651 5.377-3.252 12.45 1.015 17.652 2.636 3.212 5.993 5.471 9.718 7.228.177.083.353.169.505.375-1.142-.136-2.291-.24-3.428-.414-3.558-.545-7.024-1.431-10.269-3.034-3.412-1.688-6.323-3.965-8.193-7.354-.596-1.08-.99-2.271-1.475-3.412l.143-.053c.646.541 1.257 1.133 1.948 1.611.72.498 1.545.771 2.509.64-.066-.147-.102-.276-.173-.381-1.945-2.877-2.63-6.093-2.352-9.495.447-5.444 2.686-10.075 6.672-13.82.862-.81 1.856-1.482 2.818-2.179 1.603-1.162 3.01-2.494 3.936-4.274 1.17-2.252 1.292-4.576.463-6.962-.06-.171-.125-.341-.185-.511-.004-.015.007-.037.017-.1z"/><path d="M41.426 50.461c-.065.697-.168 1.228-.152 1.755.031.951.592 1.545 1.448 1.894.813.33 1.465.03 2.014-.547 1.12-1.179 1.564-2.653 1.759-4.218.25-2.009-.115-3.925-.981-5.745.062-.028.102-.061.118-.051 3.083 1.8 5.836 3.964 7.656 7.117 1.215 2.107 1.516 4.376.857 6.709-.898 3.183-3.185 4.891-6.316 5.542a9.343 9.343 0 0 1-4.951-.299c-2.287-.777-3.563-2.428-3.931-4.766-.338-2.144.03-4.179 1.262-6.001.32-.475.754-.868 1.217-1.39z"/></g><g fill-rule="evenodd" clip-rule="evenodd" fill="#82ac4e"><path d="M93.857 68.773c-4.825.425-9.079.803-13.533 1.196-.501-4.767-.973-9.242-1.481-14.057-2.789.365-9.611.408-10.051 1.11-.011 1.274.703 1.844 8.028 1.74l1.44 15.56c-2.299.36-3.758.373-6.042.358-9.468-.063-13.228-1.071-25.479-2.108-10.474-.886-19.526-.396-21.087-.27-3.18.252-6.366.433-10.045.678l-1.516-15.616c2.644-.354 5.041-.921 7.438-.929 1.709-.005 28.548 1.158 46.475 2.231 1.935.116-2.457-2.032-.264-2.788-.032-.735 14.86-2.022 20.193-2.506 1.099-.1 2.212-.015 3.88-.015-2.295 2.619-4.295 4.903-6.486 7.401l8.53 8.015z"/><path d="M13.453 75.912c3.122-.39 5.861-.757 8.607-1.067a27.854 27.854 0 0 1 3.392-.186c1.191.013 1.264.801.917 2.12-8.02.749-16.176 1.506-24.873 2.317l6.94-7.932C5.742 68.647 3.087 66.169 0 63.284l12.156-1.03 1.297 13.658z"/></g><g fill="#235870"><path d="M41.585 69.553h-2.391v-3.589H36.43v3.589h-2.391V60.75h2.391v3.264h2.764V60.75h2.391v8.803zM51.725 65.139c0 1.481-.363 2.607-1.09 3.378s-1.791 1.156-3.191 1.156c-1.381 0-2.439-.388-3.176-1.162-.736-.775-1.105-1.903-1.105-3.384 0-1.465.367-2.584 1.099-3.357.732-.772 1.797-1.159 3.194-1.159 1.401 0 2.463.383 3.185 1.15.723.767 1.084 1.893 1.084 3.378zm-6.058 0c0 1.702.592 2.553 1.776 2.553.602 0 1.049-.207 1.34-.621.291-.413.437-1.058.437-1.933 0-.879-.147-1.528-.442-1.948-.295-.419-.736-.629-1.322-.629-1.192.001-1.789.86-1.789 2.578zM57.199 69.553H54.82v-6.858h-2.149V60.75h6.671v1.945h-2.144v6.858z"/></g></svg>