<svg xmlns="http://www.w3.org/2000/svg" width="93.543" height="93.543" viewBox="0 0 93.543 93.543"><path d="M47.584 16.118c0 2.169.103 4.346-.061 6.503-.052.666-.83 1.279-1.275 1.917-.595-.612-1.688-1.211-1.707-1.841-.132-4.551-.115-9.11.045-13.66.025-.671 1.059-1.306 1.625-1.958.466.736 1.274 1.443 1.335 2.21.18 2.264.064 4.551.064 6.829h-.026zM30.568 10.759c.527.643 1.157 1.226 1.564 1.936 2.058 3.584 4.128 7.167 6.014 10.841.376.732-.034 1.867-.081 2.816-.853-.412-2.082-.596-2.493-1.273a179.666 179.666 0 0 1-6.363-11.391c-.369-.724.146-1.901.253-2.867l1.106-.062zM63.963 12.373c-.263.563-.419.965-.628 1.339-2.111 3.802-4.162 7.641-6.411 11.36-.415.685-1.642.877-2.494 1.297-.05-.952-.466-2.093-.088-2.825 1.941-3.765 4.031-7.46 6.211-11.095.405-.674 1.416-1.088 2.235-1.347.233-.074.773.818 1.175 1.271z" fill-rule="evenodd" clip-rule="evenodd" fill="#e1aa36"/><path d="M28.225 45.07c-4.911 1.146-9.771 2.67-14.746 3.33-4.852.645-7.431 3.414-9.442 7.653l12.131 9.957 5.323-7.041c-1.313-1.667-2.379-3.184-3.614-4.55-1.972-2.182-1.505-3.497 1.173-4.517 3.193-1.218 6.305-2.651 9.452-3.992-.091-.28-.184-.56-.277-.84z" fill="none"/><path d="M64.692 49.21c-3.392-2.042-4.413-5.422-2.392-8.766-8.574-11.063-25.116-10.875-32.151.111.86.844 2.435 1.843 2.29 2.343-.592 2.039-1.199 4.697-2.735 5.717-3.99 2.645-4.563 2.682-3.35 7.326 1.677 6.427 3.686 12.771 5.757 19.084.346 1.055 1.598 2.042 2.67 2.588 7.38 3.757 14.913 3.94 22.299.155 1.522-.781 2.939-2.527 3.566-4.153 1.644-4.261 2.944-8.668 4.144-13.083a50.835 50.835 0 0 0 1.534-8.63c.08-.86-.811-2.197-1.632-2.692zM84.682 49.783c-6.24-2.059-12.776-3.22-19.195-4.731l-.149.927c3.073 1.306 6.153 2.594 9.215 3.924 3.194 1.386 3.296 1.852 1.107 4.681-1.119 1.446-2.257 2.875-3.477 4.426l5.359 6.989c4.254-3.492 8.237-6.759 12.537-10.286-1.971-2.263-3.307-5.239-5.397-5.93z" fill="none"/><path d="M69.797 51.398l-.665 6.329 3.945-4.963c-1.172-.487-2.114-.88-3.28-1.366z" fill="none"/><path d="M84.81 46.384c-4.767-1.142-9.522-2.342-14.318-3.346-2.155-.452-3.575-1.382-4.836-3.31-8.598-13.146-27.659-14.472-37.154-2.094-3.202 4.174-6.68 6.023-11.362 6.815-.965.164-1.902.601-2.865.645-6.173.279-10.068 3.725-13.03 8.829-1.073 1.85-1.236 2.968.513 4.407a354.216 354.216 0 0 1 12.393 10.667c1.905 1.721 3.087 1.336 4.422-.625 1.693-2.484 3.59-4.829 5.684-7.613 1.727 5.474 3.13 10.39 4.876 15.184.537 1.473 1.75 3.082 3.098 3.813 9.31 5.064 18.754 5.201 28.021-.108 1.332-.763 2.502-2.383 3.029-3.862 1.854-5.207 3.396-10.525 5.239-16.381 2.712 3.539 5.03 6.427 7.181 9.434 1.084 1.517 2.035 1.698 3.442.498 4.396-3.749 8.859-7.422 13.227-11.205.57-.494 1.056-1.468 1.026-2.199-.088-2.19-6.353-9.015-8.586-9.549zm-65.759 3.517c-2.678 1.02-3.145 2.335-1.173 4.517 1.234 1.366 2.3 2.883 3.614 4.55-1.7 2.247-3.381 4.473-5.323 7.041L4.038 56.052c2.011-4.239 4.59-7.008 9.442-7.653 4.975-.66 9.835-2.184 14.746-3.33.093.28.187.56.278.84-3.149 1.341-6.26 2.774-9.453 3.992zm4.685 7.827l-3.946-4.963 3.28-1.366.666 6.329zm41.054 2.806c-1.2 4.415-2.5 8.822-4.144 13.083-.627 1.625-2.044 3.372-3.566 4.153-7.386 3.786-14.918 3.603-22.299-.155-1.072-.547-2.324-1.534-2.67-2.588-2.072-6.313-4.08-12.658-5.757-19.084-1.213-4.645-.64-4.682 3.35-7.326 1.536-1.02 2.143-3.678 2.735-5.717.145-.5-1.429-1.499-2.29-2.343 7.036-10.986 23.578-11.174 32.151-.111-2.021 3.344-1 6.723 2.392 8.766.821.495 1.712 1.831 1.631 2.694a50.944 50.944 0 0 1-1.533 8.628zM77.542 66l-5.359-6.989c1.22-1.551 2.358-2.98 3.477-4.426 2.189-2.829 2.087-3.294-1.107-4.681-3.063-1.33-6.143-2.618-9.215-3.924l.149-.927c6.419 1.511 12.955 2.672 19.195 4.731 2.09.69 3.427 3.667 5.396 5.93-4.3 3.527-8.283 6.794-12.536 10.286zm-8.41-8.272l.665-6.329 3.28 1.366-3.945 4.963z" fill="#98cdd3"/><path d="M45.587 70.301v-11.17c3.319 2.023 4.066 7.737 0 11.17zM49.653 57.285l10.86-2.371c.439 2.23-2.551 3.724-4.015 4.303-2.46.973-4.959.854-6.845-1.932zM42.219 57.293c-1.375 2.687-4.551 3.212-6.806 2.477-1.821-.593-3.968-2.381-4.209-4.947l11.015 2.47z" fill-rule="evenodd" clip-rule="evenodd" fill="#98cdd3"/></svg>