<svg xmlns="http://www.w3.org/2000/svg" width="93.543" height="93.543" viewBox="0 0 93.543 93.543"><g fill-rule="evenodd" clip-rule="evenodd" fill="#e1aa36"><path d="M52.249 68.163c-7.286-.251-13.289-.477-19.13-2.028-1.472-.391-2.888-1.073-4.253-1.772-1.171-.6-1.684-1.708-1.668-3.038.007-.516-.008-1.033.002-1.548.073-3.553-.321-6.935-1.439-10.432C20.282 32.219 32.918 15 50.895 14.739 66.341 14.513 78.99 28.172 77.6 43.53c-.277 3.066-.983 5.991-2.217 8.809-.271.62-.406 1.341-.423 2.021-.052 2.157-.094 4.319.001 6.473.09 2.022-.805 3.47-2.592 4.057-2.875.944-5.809 1.863-8.791 2.293-4.166.602-8.398.744-11.329.98zm-1.174-9.702c2.81-.139 5.627-.186 8.427-.435 3.452-.309 6.904-.729 10.1-2.229.445-.209.937-.495 1.203-.885 3.818-5.578 5.088-11.709 3.758-18.334-2.458-12.24-14.24-20.677-27.07-18.91-15.897 2.188-25.357 20.453-17.829 34.638 1.37 2.583 3.248 4.038 6.037 4.649 5.071 1.113 10.201 1.428 15.374 1.506zM21.568 71.1c1.694 3.519 4.597 4.844 7.726 5.843 5.591 1.783 11.382 2.278 17.192 2.474 7.41.248 14.822.098 22.122-1.395 2.28-.468 4.538-1.171 6.703-2.024 2.2-.868 4.109-2.242 5.247-4.536 0 1.706.066 3.417-.018 5.118-.094 1.894-1.311 3.193-2.897 3.853-2.662 1.109-5.385 2.25-8.194 2.796-12.703 2.469-25.439 2.405-38.111-.268-2.348-.495-4.625-1.496-6.821-2.508-2.078-.958-3.151-2.696-2.966-5.114.097-1.285.017-2.583.017-4.239z"/><path d="M77.732 64.238c0 1.556.068 3.458-.021 5.353-.067 1.446-1.048 2.354-2.236 3.04-2.942 1.7-6.221 2.29-9.508 2.795-9.329 1.436-18.694 1.54-28.029.23-3.447-.484-6.847-1.472-10.186-2.499-2.37-.728-3.656-2.475-3.392-5.158.131-1.346.022-2.716.022-4.313 3.054 4.885 8.034 5.636 12.837 6.361 10.029 1.518 20.095 1.504 30.085-.439 2.182-.423 4.373-1.143 6.354-2.134 1.556-.776 2.794-2.187 4.074-3.236z"/></g><path d="M0 48.389c1.219-1.137 2.17-2.074 3.176-2.945.89-.77 1.331-1.618 1.084-2.846-.278-1.39-.406-2.812-.656-4.629 1.501.852 2.777 1.481 3.948 2.267 1.134.76 2.13.686 3.272.035 1.157-.662 2.403-1.166 4.081-1.959l-1.489 6.091 4.441 4.601-6.259.81-2.734 4.962c-1.026-.598-1.261-1.561-1.563-2.469-.654-1.963-1.822-3.216-4.054-3.291-.966-.033-1.923-.361-3.247-.627zM73.992 18.491c1.219-1.137 2.17-2.074 3.176-2.945.891-.77 1.332-1.618 1.085-2.847-.279-1.389-.406-2.811-.656-4.628 1.501.852 2.778 1.48 3.948 2.266 1.133.761 2.13.686 3.271.035 1.157-.661 2.403-1.165 4.082-1.958l-1.49 6.091c1.503 1.555 2.794 2.894 4.441 4.601-2.333.301-4.24.547-6.26.81l-2.733 4.962c-1.026-.598-1.261-1.562-1.563-2.47-.653-1.961-1.822-3.214-4.055-3.289-.966-.036-1.922-.363-3.246-.628z" fill-rule="evenodd" clip-rule="evenodd" fill="#e1aa36"/><path d="M30.337 38.311c.294-.343.559-.718.889-1.023 1.108-1.023 2.24-2.024 3.362-3.033.835-.75 1.505-.732 2.284.059l8.581 8.739c.873.888 1.553.896 2.426.028L67.993 23.06c.885-.88 1.552-.879 2.432.007 1.176 1.182 2.352 2.365 3.525 3.55.74.747.744 1.52.007 2.256-8.729 8.715-17.461 17.429-26.193 26.143-.703.701-1.486.701-2.185-.019a11117.35 11117.35 0 0 1-14.725-15.218c-.213-.22-.347-.517-.517-.778v-.69z" fill-rule="evenodd" clip-rule="evenodd" fill="#82ac4e"/></svg>