<svg xmlns="http://www.w3.org/2000/svg" width="93.543" height="93.543" viewBox="0 0 93.543 93.543"><g fill-rule="evenodd" clip-rule="evenodd"><path d="M9.661 92.104c.05-1.057.091-2.114.153-3.171.078-1.334.706-2.354 1.767-3.155 1.756-1.325 3.744-2.184 5.785-2.938 3.573-1.319 7.255-2.233 11.004-2.872 1.473-.25 2.723-.896 3.819-1.869 1.865-1.655 3.147-3.721 4.121-5.989.08-.187-.03-.605-.191-.723-3.96-2.887-6.284-6.974-8.344-11.267-.228-.475-.563-.911-.904-1.318-1.744-2.075-2.613-4.431-2.233-7.148.208-1.491.703-1.93 2.198-2.221-.151-1.444-.328-2.893-.448-4.346-.218-2.614-.128-5.213.592-7.755 1.038-3.669 3.396-6.315 6.713-8.009 6.441-3.29 13.022-3.33 19.492-.133 5.004 2.472 7.473 6.737 7.6 12.272.053 2.268-.248 4.544-.395 6.817-.025.377-.08.752-.121 1.122 1.719.475 2.32 1.186 2.333 2.996.018 2.542-.769 4.797-2.59 6.642-.239.242-.422.56-.567.873-1.209 2.619-2.502 5.205-4.364 7.419-1.195 1.423-2.641 2.635-3.954 3.963-.186.189-.417.575-.344.744 1.106 2.509 2.526 4.793 4.72 6.529 1.366 1.079 2.986 1.343 4.616 1.656 4.246.815 8.405 1.929 12.348 3.743.737.339 1.434.767 2.149 1.155 1.929 1.048 2.836 2.683 2.813 4.864-.007.706.027 1.412.042 2.118l-67.81.001z" fill="#98cdd3"/><path d="M85.298 81.671c-3.611-.007-7.222-.008-10.833-.028-.369-.002-.768-.048-1.1-.195-4.389-1.946-8.996-3.153-13.7-4.018-1.864-.343-3.004-1.037-4.231-2.778 3.502-.11 5.057-2.434 6.199-5.13-1.018-.923-1.958-1.777-2.934-2.666 2.01-2.709 2.908-5.628 4.772-8.094 2.046-2.703 2.403-5.997 1.233-9.297-.175-.495-.477-1.042-.885-1.336-.656-.472-.646-.986-.552-1.674.168-1.206.228-2.426.34-3.727 3.929-.482 7.47.169 10.224 3.277 1.284 1.447 1.773 3.233 1.811 5.112.033 1.621-.108 3.245-.174 4.929.965.148 1.206.915 1.22 1.819.023 1.467-.406 2.776-1.396 3.884a2.374 2.374 0 0 0-.401.603c-1.207 2.697-2.634 5.235-5.094 7.062.6 1.513 1.326 2.937 2.599 3.904.744.563 1.711.879 2.622 1.169 2.242.713 4.515 1.327 6.762 2.028.561.175 1.072.516 1.595.803 1.024.561 1.725 1.374 1.923 2.56v1.793zM1.836 79.715c.334-1.437 1.408-2.177 2.621-2.784 2.397-1.202 4.946-1.958 7.573-2.396 1.615-.269 2.852-1.023 3.755-2.327.596-.861 1.082-1.798 1.634-2.73-2.54-1.888-3.968-4.424-5.173-7.123-.118-.263-.325-.492-.511-.722-1.018-1.241-1.427-2.665-1.245-4.251.09-.777.365-1.054 1.203-1.373-.08-1.418-.226-2.824-.227-4.229-.004-4.933 3.029-8.414 7.928-9.028 1.326-.166 2.691-.025 4.09-.025.158 1.546.32 3.049.453 4.554.013.146-.114.353-.239.454-1.189.957-1.672 2.286-1.79 3.714-.255 3.11.365 5.99 2.527 8.398.374.417.671.918.931 1.417.929 1.777 1.826 3.569 2.923 5.725l-2.802 2.476c.471 1.296 1.223 2.488 2.195 3.561 1.042 1.15 2.448 1.434 4.043 1.642-1.031 1.239-1.987 2.334-3.531 2.617-4.41.806-8.773 1.806-12.912 3.558a10.271 10.271 0 0 1-4.321.828c-3.041-.058-6.083-.006-9.125.001v-1.957z" fill="#579da8"/><path d="M93.543 17.412c-.118.493-.241.986-.352 1.48-.609 2.675-2.063 4.81-4.35 6.269-2.121 1.355-4.342 2.556-6.563 3.747-3.955 2.118-7.447 4.723-9.553 8.817-.653 1.273-1.164 2.622-1.813 4.104-.153-.387-.269-.638-.354-.899-1.5-4.585-4.362-8.102-8.479-10.566-2.235-1.337-4.574-2.499-6.847-3.777-3.021-1.698-5.61-3.797-6.438-7.406-1.294-5.648.105-14.051 8.868-17.24 3.884-1.414 7.546-.718 10.708 1.895 1.101.909 1.824 2.275 2.593 3.27.737-.963 1.474-2.356 2.591-3.294C76.458 1.373 79.9.589 83.536 1.726c5.452 1.707 8.755 5.435 9.734 11.13.056.326.181.643.273.963v3.593z" fill="#de6723"/></g></svg>