<svg xmlns="http://www.w3.org/2000/svg" width="93.543" height="93.543" viewBox="0 0 93.543 93.543"><path d="M30.804 92.543c-1.857-1.542-2.178-3.538-2.155-5.871.136-13.229.145-26.461.17-39.693.003-1.282-.179-2.563-.29-4.068-2.226 1.247-1.982 3.385-2.593 5.036-.936 2.528-1.524 5.183-2.308 7.771-.423 1.401-1.198 2.554-2.898 2.114-1.475-.382-1.584-1.699-1.299-2.875 1.104-4.593 1.773-9.397 3.634-13.675 1.85-4.261 4.935-7.983 7.707-12.295l3.967 4.604c.238-.158.477-.315.715-.474l-3.143-5.371 5.318-1.791c-.142 2.824-.253 4.972-.361 7.122l.775.084c1.292-3.985 2.913-7.898 3.785-11.971 1.025-4.78 1.4-9.701 2.042-14.563.085-.67.02-1.364.133-2.029.244-1.424 1.281-2.162 2.539-1.765.732.233 1.681 1.346 1.684 2.064.014 4.064.051 8.166-.451 12.188-.923 7.374-2.249 14.697-3.328 22.053-.222 1.498-.142 3.046-.125 4.57.162 14.073.315 28.148.542 42.219.04 2.431-.014 4.741-1.832 6.613h-3.058c-.38-1.771-1.008-3.527-1.104-5.31-.455-8.419-.744-16.844-1.153-25.265-.045-.938-.474-1.855-.724-2.785-.818.806-.957 1.452-.988 2.103-.397 8.42-.843 16.838-1.113 25.26-.074 2.287-.647 4.244-2.05 5.997-.68.003-1.359.003-2.038.003zM52.205 92.543c-.684-3.954-1.635-7.887-2.01-11.871-1.056-11.292-1.911-22.605-2.763-33.915-.153-2.009.048-4.05.162-6.072.083-1.519.577-3.072.372-4.54-.849-6.139.522-12.091 1.207-18.115.534-4.701.761-9.434 1.136-14.152.048-.623.153-1.239.235-1.905 2.422.315 2.859 1.786 2.823 3.665-.085 4.239.119 8.501-.244 12.715-.443 5.175 1.846 9.701 3.027 14.54V25.77c2.337-1.112 3.864 0 5.653 1.562l-3.549 6.288.738.426 3.924-4.923c.622.979 1.284 1.687 1.57 2.521 2.363 6.931 5.509 13.423 9.981 19.281 1.846 2.414 1.655 2.558-1.048 5.007-4.109-3.494-7.022-8.031-10.821-12.931.875 6.839 1.607 13 2.459 19.144 1.116 8.034 2.334 16.056 3.493 24.087.315 2.205.25 4.366-1.056 6.311h-3.058c-.71-2.226-1.607-4.411-2.093-6.686-1.764-8.267-3.376-16.564-5.08-24.844-.127-.621-.528-1.184-.968-2.138-.392.873-.65 1.175-.639 1.469.281 9.153.662 18.305.835 27.459.031 1.57-.795 3.161-1.227 4.739l-3.059.001z" fill-rule="evenodd" clip-rule="evenodd" fill="#82ac4e"/><path d="M40.115 19.026c-.034 3.841-2.848 6.537-6.809 6.517-3.927-.017-6.693-2.77-6.681-6.647.011-3.862 2.819-6.825 6.559-6.923 3.972-.105 6.968 2.942 6.931 7.053zM67.575 16.907c.108 3.557-2.947 6.973-6.451 7.212-3.512.241-6.837-2.839-7.016-6.498-.199-4.112 2.66-7.369 6.556-7.468 3.433-.087 6.803 3.207 6.911 6.754z" fill-rule="evenodd" clip-rule="evenodd" fill="#82ac4e"/></svg>