<svg xmlns="http://www.w3.org/2000/svg" width="93.543" height="93.543" viewBox="0 0 93.543 93.543"><g fill-rule="evenodd" clip-rule="evenodd" fill="#d62"><path d="M49.318 22.397c2.933 3.544 4.463 7.793 5.654 12.18 1.749 6.443 3.023 13.079 5.427 19.269 4.142 10.667 8.627 21.235 14.954 30.874.47.713.624 1.381.222 2.225-1.084 2.282-2.203 2.868-4.668 2.208-.718-.192-1.419-.493-2.083-.833-5.105-2.615-9.603-6.128-14.015-9.73-6.089-4.976-12.056-10.1-18.137-15.085-4.473-3.667-9.151-7.091-13.534-10.858-2.186-1.88-4.162-4.123-5.791-6.505-2.403-3.52-2.016-7.138.745-10.379 1.169-1.373 2.507-2.614 3.853-3.82 2.305-2.065 4.674-4.053 7.02-6.069 3.372-2.896 6.884-5.573 11.223-6.885 1.643-.497 3.298-.654 5.151-.182 1.34 1.188 2.854 2.229 3.979 3.59zM32.211 32.413c-.044-.052 8.359.18 14.155 6.035 3.318 6.291 8.824 14.583 10.132 23.008.296.593 2.931 2.871 3.279 3.434.099.16-1.373-6.553-1.562-7.047-3.019-7.824-4.943-15.632-8.57-23.594-1.494-3.287-5.206-7.907-5.012-11.499-1.945 1.651-8.883 9.21-12.422 9.663z"/><path d="M18.669 28.436c.553-1.34 1.282-2.618 2.035-3.861.748-1.233 1.034-2.438.218-3.726-2.103-3.315-4.629-6.263-7.852-8.529-1.85-1.302-3.514-1.003-5.087.647-.176.186-.374.35-.721.67-.652-.728-1.41-1.325-1.831-2.102-.949-1.746-1.084-3.805 1.567-4.667a11.074 11.074 0 0 1 3.754-.539c2.717.1 5.001 1.362 6.992 3.151 2.235 2.008 4.416 4.078 6.661 6.069 2.148 1.907 4.556 2.945 7.537 2.272 1.007-.226 2.132-.184 3.156-.005.84.147 1.613.681 2.416 1.045l.002.467c-6.926 3.497-12.011 9.342-18.051 14.101-1.199-1.637-1.498-3.292-.796-4.993zm8.446-6.466c.474.589.957.679 1.577.226.805-.59 3.184-1.768 4.327-2.558-2.981-.2-5.574 1.204-9.216-1.693.604 2.381 2.221 2.672 3.312 4.025zM7.56 8.637c-.425-.13-1.193.055-1.457.381-.502.621.38 2.066 1.479 2.551.88-1.513.887-2.656-.022-2.932z"/></g></svg>