<svg xmlns="http://www.w3.org/2000/svg" width="93.543" height="93.543" viewBox="0 0 93.543 93.543"><path fill="#98CDD3" d="M46.916 81.641c-18.989 0-34.395-15.406-34.395-34.395s15.406-34.395 34.395-34.395c18.988 0 34.395 15.406 34.395 34.395S65.904 81.641 46.916 81.641zm0-58.758c-13.436 0-24.363 10.928-24.363 24.363S33.48 71.609 46.916 71.609s24.363-10.928 24.363-24.363-10.927-24.363-24.363-24.363zm5.732 28.662c0 .807-.627 1.434-1.434 1.434h-14.33a1.415 1.415 0 0 1-1.433-1.434V48.68c0-.807.627-1.434 1.433-1.434h10.032V31.482c0-.807.627-1.434 1.434-1.434h2.865c.807 0 1.434.627 1.434 1.434v20.063z"/></svg>