<svg xmlns="http://www.w3.org/2000/svg" width="93.543" height="93.543" viewBox="0 0 93.543 93.543"><path fill-rule="evenodd" clip-rule="evenodd" fill="#98CDD3" d="M13.863 14.853H24.56c.276-1.767.47-3.01.701-4.479h41.247c.282 1.195.605 2.544 1.012 4.242h10.796c0 3.571-.856 6.233-1.354 9.041-.994 5.615-2.902 11.019-7.481 14.789-1.988 1.636-4.464 3.594-6.951 3.594-10.21 0-7.637 7.885-16.182 7.885-5.729 0-7.484-1.323-10.989-5.401-.667-.778-1.833-1.423-2.847-1.563-10.516-1.458-15.076-8.63-17.489-17.946-.277-1.068-1.16-7.832-1.16-10.162zm4.686 3.466c-1.575 11.368 4.299 20.544 13.25 21.854l-6.792-21.854h-6.458zm48.305-.067a72564.94 72564.94 0 0 0-6.864 22.031c9.269-1.955 15.383-11.749 13.266-22.031h-6.402zm-16.376 26.77c6.283-4.425 14.398-25.741 10.922-29.919-.946.049-2.155.114-3.274.174-.797 5.466-1.124 10.658-2.4 15.604-1.258 4.869-3.478 9.488-5.248 14.141zM29.41 84.381V65.019h32.624c.022 3.303.052 6.564.063 9.826.01 3.138.002 6.273.002 9.331-4.013.902-27.352 1.03-32.689.205zm5.886-7.376c7.078-.117 13.749.277 20.418-.211v-8.173c-6.961.09-13.627-.24-20.418.181v8.203zM67.719 8.672c-.813.075-1.77.238-2.726.24-12.768.018-25.534.015-38.3.008-.828 0-1.814.192-2.435-.186-.631-.383-.902-1.361-1.545-2.436 1.294-.24 2.069-.511 2.848-.511 13.098-.027 26.195-.024 39.294-.021.662 0 1.336-.029 1.982.087 1.651.297 1.584 1.334.882 2.819zM27.203 86.093c1.482-.181 2.053-.114 3.006-.116 10.104-.022 20.208-.018 30.313-.007.824.002 3.031-.078 3.74-.05.322.013-.464 1.975-.696 3.056-1.119.206-1.078.113-1.691.115-10.436.027-20.87.03-31.306.025-.824 0-1.831.173-2.42-.225-.598-.403-.406-1.697-.946-2.798zM63.232 61.032c.516.813.397 1.887-.098 2.287-.43.347-1.258.262-1.908.263-10.438.015-20.877.019-31.316.006-1.479-.002-3.157.132-2.597-2.556h35.919zM38.431 58.895c.502-3.011 5.027-3.38 3.386-7.295 2.987.992 4.941 1.249 8.289.206-.889 1.043-.719 2.974.36 3.706 1.441.979 2.419 1.133 3.125 3.191-5.185 1.493-10.067 1.372-15.16.192z"/></svg>