<svg xmlns="http://www.w3.org/2000/svg" width="93.543" height="93.543" viewBox="0 0 93.543 93.543"><path fill-rule="evenodd" clip-rule="evenodd" fill="#98CDD3" d="M53.635 16.664c-.077 3.923-3.172 6.735-7.327 6.662-4.004-.073-7.037-3.251-6.803-7.129.227-3.728 3.179-6.432 7.039-6.442 4.048-.011 7.166 3.027 7.091 6.909zM18.045 23.963c-3.638-.09-7.061-3.765-6.812-7.317.242-3.469 3.64-6.642 7.048-6.579 3.627.068 7.056 3.754 6.797 7.311-.258 3.512-3.63 6.671-7.033 6.585zM82.094 17.021c-.008 3.751-2.903 6.818-6.54 6.926-3.576.104-6.988-3.472-6.86-7.195.12-3.52 3.482-6.781 6.877-6.67 3.629.119 6.529 3.204 6.523 6.939z"/><path fill="#98CDD3" d="M30.841 35.476c.964-4.295-.034-8.35-.505-12.492-.227-1.995-.696-3.965-.905-5.961-.523-4.968-.96-9.946-1.433-14.94-2.49 1.492-2.567 1.486-2.656 2.49-.09 1-.097 2.025.024 3.022.897 7.368.725 14.671-1.244 21.872-.29 1.056-.663 2.09-.998 3.135l-.802-.196.522-7.097c-2.456-.74-4.165.161-5.766 1.885 1.25 2.134 2.374 4.058 3.5 5.982-.236.146-.473.295-.71.443l-4.197-4.783c-.555 1.039-1.065 1.731-1.314 2.508-2.277 7.095-5.445 13.714-10.204 19.505a3.2 3.2 0 0 0-.279.421c-1.178 2.01-1.107 2.172 2.204 4.179 3.288-4.017 6.628-8.101 10.21-12.479-.541 4.538-.97 8.864-1.586 13.165-1.453 10.128-2.985 20.243-4.509 30.36-.325 2.166.1 3.991 2.02 5.27h2.02c.705-1.813 1.675-3.568 2.069-5.445 1.882-8.957 3.604-17.943 5.416-26.913.041-.212.488-.343 1.163-.783.543 3.275.12 6.337.003 9.393-.256 6.674-.523 13.35-.63 20.026-.02 1.234.695 2.481 1.074 3.723h3.03c1.761-2.439 1.847-5.272 2.045-8.127.556-8.042 1.246-16.074 1.844-24.115.424-5.69.896-11.384 1.121-17.082.089-2.32-1.014-4.796-.527-6.966zm-7.9 4.289a3.073 3.073 0 1 1 0-6.146 3.073 3.073 0 0 1 0 6.146zM61.314 2.874c-1.483-.314-2.417.96-2.694 3.453-.186 1.661-.38 3.323-.632 4.975-1.194 7.797-6.263 13.776-10.177 20.449l1.781-6.77-5.303.325 1.219 6.313c-2.604-3.768-5.077-7.513-6.85-11.565-1.524-3.488-2.29-7.312-3.309-11.009-.357-1.291-.475-2.646-.684-3.975-.204-1.286-.804-2.515-2.197-2.105-.871.255-2.015 1.461-2.061 2.293-.142 2.666-.083 5.399.365 8.027.904 5.32 2.66 10.387 5.405 15.079 2.163 3.702 3.181 7.604 3.069 11.999-.228 9.082.048 18.171-.041 27.26-.059 6.218-.339 12.438-.614 18.651-.096 2.139.315 3.994 1.909 5.49h3.03c1.907-4.938 1.644-10.172 2.025-15.309.457-6.141.771-12.293 1.839-18.43.42 8.701.852 17.403 1.249 26.105.121 2.692.127 5.393 1.959 7.633h3.031c1.547-1.868 1.192-4.107 1.189-6.259-.021-15.818-.01-31.64-.147-47.458-.025-2.97.653-5.579 1.962-8.189 1.576-3.143 3.323-6.292 4.251-9.645 1.239-4.496 1.873-9.174 2.534-13.806.208-1.446-.206-3.13-2.108-3.532zm-15.011 36.28a3.022 3.022 0 1 1 0-6.044 3.022 3.022 0 0 1 0 6.044zM89.925 51.901a15.177 15.177 0 0 0-1.872-2.981 42.715 42.715 0 0 1-7.513-14.14c-.621-1.992-1.62-3.867-2.612-6.179l-4.313 5.13-.708-.546 3.686-5.85c-1.493-1.858-3.196-2.737-5.331-2.091-1.343 2.689.659 5.281-.68 7.634-.626-1.771-.435-3.789-1.24-5.264-1.727-3.166-1.499-6.464-1.483-9.788.016-4.039.117-8.077.204-12.115.042-1.986-.447-3.485-2.549-3.737-.401 5.133-.504 9.966-1.218 14.708-.948 6.316-2.056 12.565-1.666 19.013.478 7.875.545 15.775 1.006 23.652a976.166 976.166 0 0 0 2.126 28.643c.113 1.308 1.318 2.521 2.018 3.774h2.021c2.072-1.94 1.885-4.392 1.773-6.951-.359-8.345-.562-16.695-.798-25.047-.009-.27.268-.547.769-1.499l3.216 15.617c.94 4.566 1.997 9.115 2.765 13.713.301 1.791 1.104 3.053 2.378 4.167h2.021c.971-1.565 1.643-3.03 1.314-5.112-1.412-8.945-2.594-17.928-3.77-26.91-.684-5.24-2.091-10.438-1.434-15.904 2.852 3.551 5.517 6.991 8.353 10.284.501.583 1.843.946 2.574.712 1.316-.419 1.531-1.732.963-2.933zM70.971 39.667a3.02 3.02 0 1 1 .001-6.041 3.02 3.02 0 0 1-.001 6.041z"/></svg>