<svg version="1" xmlns="http://www.w3.org/2000/svg" width="346.667" height="346.667" viewBox="0 0 260.000000 260.000000"><path d="M95.5 9.5c-2.2.8-4.1 1.5-4.3 1.5-.1 0-1.6 2.1-3.2 4.7-4.1 6.4-4.1 12.3 0 18.4 3.2 5 8.8 7.6 17 7.8 2.5.1 4.9.6 5.4 1.1 1.1 1.1.1 3.9-1.6 4.4-.7.2-5.1 1.4-9.8 2.7C60.7 60.2 31.1 92.3 23.5 132c-1.4 7.4-1.4 27.8 0 34.5 6.8 32.6 25.8 58 54.5 72.9 17.7 9.2 32.9 12.6 54 12.1 17.2-.4 29-3.3 44.6-11 37-18.1 59.1-53.9 57.9-94-.3-11.8-.6-14.1-2.6-22-2.4-9.3-10.4-27.6-14.1-32.2-1-1.3 1.9-6.2 3.7-6.3.6 0 2.4 1.2 4 2.6 5.1 4.4 8.4 5.7 13.4 5.1 7.4-.8 12.1-7.5 10.7-15.1-.5-2.7-4.1-6.8-18-20.4-15.6-15.1-17.8-17-21.6-17.6-7.1-1.1-14.9 4.2-15.2 10.4-.2 6 .4 7.5 4.6 11.6l4.4 4.2-2.2 2.1c-2.3 2.2-4.2 2.7-4.8 1.3-.5-1.2-9.8-7.7-15.8-11-7.1-4-18.8-8.4-27.9-10.7-6.3-1.5-7.2-2-6.9-3.9.3-1.8 1.2-2.2 7.5-2.7 7.8-.7 11.5-2.5 15.3-7.2 2.1-2.6 2.5-4.2 2.5-9.7 0-7.9-2.6-12.2-8.9-15.1-3.7-1.6-7-1.8-33.6-1.8-22.9 0-30.4.3-33.5 1.4zm46.9 71.6c17.7 3.2 36 15.3 46.2 30.7 13.5 20.3 14.9 45.7 3.6 68.2-5.5 11-18.7 24.1-30.2 29.8-12.5 6.2-21.9 8.3-36 7.8-9.1-.3-13.2-1-19.5-3-19.3-6.5-35-20.2-43.2-37.9-7.5-16.2-7.8-36.9-.6-54.2 4.1-9.8 13.7-21.9 23.3-29.3 2.3-1.8 18.3-10.2 19.5-10.2.3 0 1-.3 1.7-.5.7-.3 5.1-1.1 9.8-1.8 9-1.4 15.8-1.3 25.4.4z"/><path d="M105.8 110.2c-.9.7-2.1 2.4-2.6 3.8s-.9 17.6-.8 36.1c.1 30.2.3 33.8 1.9 36.2 2.8 4.3 7.4 3.7 18.2-2.4 5-2.8 12.4-6.9 16.5-9.1 4.1-2.3 8.9-4.9 10.7-5.9 1.8-1 6.3-3.5 10-5.5 9.6-5.3 14.6-8.5 16-10.3 1.8-2.4 1.5-6.5-.6-8.8-3.2-3.4-60-34.5-64-35-2.1-.3-4.3.1-5.3.9z"/></svg>